<?xml version="1.0" encoding="UTF-8"?>
<svg xmlns="http://www.w3.org/2000/svg" version="1.1" viewBox="0 0 159.07 146">
  <defs>
    <style>
      .cls-1, .cls-2, .cls-3, .cls-4, .cls-5, .cls-6, .cls-7, .cls-8, .cls-9, .cls-10, .cls-11, .cls-12, .cls-13, .cls-14, .cls-15, .cls-16 {
        fill-rule: evenodd;
      }

      .cls-1, .cls-17 {
        fill: #fb6cb3;
      }

      .cls-2 {
        fill: #efefef;
      }

      .cls-3, .cls-18 {
        fill: #fff;
      }

      .cls-4 {
        fill: #a33e5d;
      }

      .cls-5 {
        fill: #0089c7;
      }

      .cls-19 {
        fill: #9a8ab3;
      }

      .cls-6 {
        fill: #6bc06f;
      }

      .cls-20 {
        fill: #695983;
      }

      .cls-7 {
        fill: #fcd471;
      }

      .cls-8 {
        fill: #babab9;
      }

      .cls-9 {
        fill: #29abe2;
      }

      .cls-10 {
        fill: #b3b3b3;
      }

      .cls-21 {
        fill: #f2f2f2;
      }

      .cls-11 {
        fill: #ffb438;
      }

      .cls-12 {
        fill: #f05f8a;
      }

      .cls-22, .cls-15 {
        fill: #005a83;
      }

      .cls-13 {
        fill: #ffcf00;
      }

      .cls-14 {
        fill: #faa719;
      }

      .cls-16 {
        fill: #87cc8a;
      }
    </style>
  </defs>
  <!-- Generator: Adobe Illustrator 28.6.0, SVG Export Plug-In . SVG Version: 1.2.0 Build 709)  -->
  <g>
    <g id="Layer_1">
      <g id="Profit">
        <g id="Background">
          <circle id="Background_2" class="cls-19" cx="81.95" cy="75.06" r="66.5"/>
        </g>
        <g id="Profit-2" data-name="Profit">
          <path id="Ruler" class="cls-20" d="M96.85,7.56c0-.5.4-.9.89-.9s.9.4.9.9v8.22h9.64V7.56c0-.5.41-.9.9-.9s.89.4.89.9v8.22h9.65V7.56c0-.5.4-.9.9-.9s.89.4.89.9v8.22h9.65V7.56c0-.5.4-.9.89-.9s.9.4.9.9v8.22h9.64V7.56c0-.5.41-.9.9-.9s.89.4.89.9v8.22h6.59c.49,0,.89.4.89.89s-.4.9-.89.9h-6.59v9.15h6.59c.49,0,.89.4.89.89s-.4.9-.89.9h-6.59v9.15h6.59c.49,0,.89.4.89.89s-.4.9-.89.9h-6.59v9.14h6.59c.49,0,.89.41.89.9s-.4.9-.89.9h-6.59v9.14h6.59c.49,0,.89.41.89.9s-.4.89-.89.89h-6.59v9.15h6.59c.49,0,.89.4.89.9s-.4.89-.89.89h-6.59v9.15h6.59c.49,0,.89.4.89.9s-.4.89-.89.89h-6.59v9.15h6.59c.49,0,.89.4.89.89s-.4.9-.89.9h-6.59v7.29c0,.5-.4.9-.89.9s-.9-.4-.9-.9v-7.29h-9.64v7.29c0,.5-.4.9-.9.9s-.89-.4-.89-.9v-7.29h-9.65v7.29c0,.5-.4.9-.89.9s-.9-.4-.9-.9v-7.29h-9.65v7.29c0,.5-.4.9-.89.9s-.9-.4-.9-.9v-7.29h-9.64v7.29c0,.5-.41.9-.9.9s-.89-.4-.89-.9v-7.29h-6.58c-.5,0-.9-.4-.9-.9s.4-.89.9-.89h6.58v-9.15h-6.58c-.5,0-.9-.4-.9-.89s.4-.9.9-.9h6.58v-9.15h-6.58c-.5,0-.9-.4-.9-.89s.4-.9.9-.9h6.58v-9.15h-6.58c-.5,0-.9-.4-.9-.89s.4-.9.9-.9h6.58v-9.14h-6.58c-.5,0-.9-.41-.9-.9s.4-.9.9-.9h6.58v-9.14h-6.58c-.5,0-.9-.41-.9-.9s.4-.89.9-.89h6.58v-9.15h-6.58c-.5,0-.9-.4-.9-.9s.4-.89.9-.89h6.58v-9.15h-6.58c-.5,0-.9-.4-.9-.9s.4-.89.9-.89h6.58V7.56ZM98.65,17.57v9.15h9.64v-9.15h-9.64ZM98.65,28.51v9.15h9.64v-9.15h-9.64ZM98.65,39.46v9.14h9.64v-9.14h-9.64ZM98.65,50.4v9.14h9.64v-9.14h-9.64ZM98.65,61.33v9.15h9.64v-9.15h-9.64ZM98.65,72.27v9.15h9.64v-9.15h-9.64ZM98.65,83.21v9.15h9.64v-9.15h-9.64ZM110.08,92.36h9.65v-9.15h-9.65v9.15ZM121.53,92.36h9.65v-9.15h-9.65v9.15ZM132.97,92.36h9.64v-9.15h-9.64v9.15ZM142.61,61.33h-9.64v9.15h9.64v-9.15ZM131.18,61.33h-9.65v9.15h9.65v-9.15ZM119.73,61.33h-9.65v9.15h9.65v-9.15ZM110.08,59.53h9.65v-9.14h-9.65v9.14ZM121.53,59.53h9.65v-9.14h-9.65v9.14ZM132.97,59.53h9.64v-9.14h-9.64v9.14ZM110.08,48.59h9.65v-9.14h-9.65v9.14ZM121.53,48.59h9.65v-9.14h-9.65v9.14ZM132.97,48.59h9.64v-9.14h-9.64v9.14ZM110.08,37.66h9.65v-9.15h-9.65v9.15ZM121.53,37.66h9.65v-9.15h-9.65v9.15ZM132.97,37.66h9.64v-9.15h-9.64v9.15ZM110.08,26.72h9.65v-9.15h-9.65v9.15ZM121.53,26.72h9.65v-9.15h-9.65v9.15ZM132.97,26.72h9.64v-9.15h-9.64v9.15ZM142.61,72.27h-9.64v9.15h9.64v-9.15ZM131.18,72.27h-9.65v9.15h9.65v-9.15ZM119.73,72.27h-9.65v9.15h9.65v-9.15Z"/>
          <g id="Piggy_Bank">
            <rect class="cls-17" x="27.58" y="110.07" width="5.25" height="6.49"/>
            <rect class="cls-17" x="52.29" y="110.07" width="5.24" height="6.49"/>
            <path class="cls-1" d="M14.49,84.13h-5.7c-1.28,0-2.32,1.04-2.32,2.32v8.48c0,1.28,1.04,2.32,2.32,2.32h5.7c1.28,0,2.32-1.04,2.32-2.32v-8.48c0-1.28-1.04-2.32-2.32-2.32h0Z"/>
            <path class="cls-12" d="M42.01,65.45c8.92,0,16.96,3.1,22.54,8.03l5.73.83c.87.13,1.49.96,1.36,1.83h0c-.13.88-.95,1.49-1.83,1.36l-1.77-.26c2.84,3.74,4.47,8.13,4.47,12.83,0,13.6-13.66,24.63-30.5,24.63s-30.49-11.02-30.49-24.63,13.65-24.63,30.49-24.63h0Z"/>
            <path class="cls-12" d="M23.66,75.21h0c1.22-.53,1.79-1.96,1.25-3.18l-2.36-5.46c-.54-1.22-1.97-1.78-3.19-1.25h0c-1.22.53-1.79,1.97-1.25,3.19l2.36,5.45c.54,1.22,1.97,1.8,3.19,1.26h0Z"/>
            <path class="cls-4" d="M18.02,66.84c-.16.53-.15,1.11.09,1.66l2.36,5.45c.33.74.97,1.24,1.71,1.4.15-.53.14-1.12-.09-1.67l-2.37-5.45c-.33-.74-.97-1.23-1.7-1.4h0Z"/>
            <path class="cls-4" d="M19.47,83.66c1.49,0,2.7-1.21,2.7-2.7s-1.21-2.7-2.7-2.7-2.71,1.21-2.71,2.7,1.22,2.7,2.71,2.7h0Z"/>
            <path class="cls-4" d="M34.65,70.29c5.2-2.1,10.54-2.15,15.88,0,1.25,1.25,1.25,1.02,0,2.28-5.29-1.88-10.59-1.68-15.88,0-1.27-1.26-1.25-1.02,0-2.28h0Z"/>
          </g>
          <g id="Another_Money">
            <path class="cls-13" d="M42.25,66.04c5.45,0,9.9-4.44,9.9-9.9s-4.44-9.9-9.9-9.9-9.9,4.45-9.9,9.9,4.44,9.9,9.9,9.9h0Z"/>
            <path class="cls-3" d="M42.25,64.3c4.49,0,8.15-3.66,8.15-8.15s-3.66-8.15-8.15-8.15-8.15,3.66-8.15,8.15,3.66,8.15,8.15,8.15h0Z"/>
            <path class="cls-13" d="M42.25,63.84c4.23,0,7.68-3.46,7.68-7.69s-3.45-7.68-7.68-7.68-7.69,3.45-7.69,7.68,3.46,7.69,7.69,7.69h0Z"/>
            <path class="cls-3" d="M41.4,60.58h1.77v-.72c.99-.35,1.69-1.22,1.69-2.25,0-.57-.21-1.09-.57-1.51-.47-.56-1.22-.93-2.05-.93-.35,0-.63-.27-.63-.59s.28-.6.63-.6.65.27.65.6h1.98c0-1.03-.7-1.91-1.69-2.25v-.82h-1.77v.79c-1.04.32-1.78,1.23-1.78,2.3,0,1.34,1.16,2.4,2.62,2.4.35,0,.65.27.65.59s-.29.59-.65.59-.63-.26-.63-.59h-1.99c0,1.1.75,2,1.79,2.31v.68Z"/>
          </g>
          <g id="Credit_Card">
            <path class="cls-5" d="M78.05,88.92h46.95c1.07,0,1.94.87,1.94,1.93v25.17c0,1.07-.87,1.93-1.94,1.93h-46.95c-1.07,0-1.94-.87-1.94-1.93v-25.17c0-1.07.87-1.93,1.94-1.93h0Z"/>
            <rect class="cls-22" x="76.12" y="91.97" width="50.82" height="8.23"/>
            <path class="cls-8" d="M79.46,105.55h44.13c.57,0,1.04-.47,1.04-1.04v-.95c0-.57-.47-1.04-1.04-1.04h-44.13c-.57,0-1.06.47-1.06,1.04v.95c0,.57.48,1.04,1.06,1.04h0Z"/>
            <path class="cls-15" d="M62.81,99.21h46.95c1.07,0,1.94.87,1.94,1.94v25.17c0,1.07-.87,1.93-1.94,1.93h-46.95c-1.07,0-1.93-.87-1.93-1.93v-25.17c0-1.07.87-1.94,1.93-1.94h0Z"/>
            <path class="cls-9" d="M62.81,99.21h46.95c1.07,0,1.94.87,1.94,1.94v9.84h-50.82v-9.84c0-1.07.87-1.94,1.93-1.94h0Z"/>
            <path class="cls-10" d="M66.38,114.47h6.27c.67,0,1.22.55,1.22,1.23v6.27c0,.67-.55,1.22-1.22,1.22h-6.27c-.68,0-1.23-.55-1.23-1.22v-6.27c0-.68.55-1.23,1.23-1.23h0Z"/>
            <path class="cls-21" d="M66.38,114.41h6.27c.35,0,.67.15.9.38h0c.23.23.38.56.38.91v6.27c0,.35-.14.67-.38.9h0c-.23.23-.55.38-.9.38h-6.27c-.35,0-.68-.14-.91-.38-.22-.23-.38-.55-.38-.9v-6.27c0-.35.15-.68.38-.91h.01c.22-.22.55-.38.9-.38h0ZM72.66,114.53h-6.27c-.33,0-.62.13-.83.34h0c-.21.21-.34.5-.34.83v6.27c0,.32.13.61.34.82.21.21.5.34.83.34h6.27c.32,0,.61-.13.82-.34h0c.21-.21.35-.5.35-.82v-6.27c0-.33-.14-.62-.35-.83h0c-.21-.21-.5-.34-.82-.34h0Z"/>
            <path class="cls-21" d="M67.6,118.89h-2.39v1.83h2.39v-1.83ZM65.15,118.77h2.56v2.06h-2.62v-2.06h.06Z"/>
            <path class="cls-21" d="M67.66,118.89h-2.57v-2.05h2.62v2.05h-.05ZM65.21,118.77h2.39v-1.83h-2.39v1.83Z"/>
            <path class="cls-21" d="M71.38,118.77h2.56v2.06h-2.62v-2.06h.06ZM73.83,118.89h-2.39v1.83h2.39v-1.83Z"/>
            <path class="cls-21" d="M71.44,118.77h2.39v-1.83h-2.39v1.83ZM73.88,118.89h-2.56v-2.05h2.62v2.05h-.06Z"/>
            <path class="cls-21" d="M68.98,114.41h2.46v.12h-2.46c-.34,0-.66.14-.89.38h0c-.22.22-.38.54-.38.89v5.39c0,.07.04.13.08.18h0s.12.08.19.08h3.34v-4.61h.12v4.71h-3.46c-.11,0-.2-.04-.27-.11h0c-.06-.07-.11-.15-.11-.26v-5.39c0-.39.15-.73.4-.97h0c.26-.25.6-.41.97-.41h0Z"/>
            <path class="cls-21" d="M68.98,114.41h2.46v.12h-2.46c-.34,0-.66.14-.89.38h0c-.22.22-.38.54-.38.89v5.04h-.11v-5.04c0-.39.15-.73.4-.97h0c.26-.25.6-.41.97-.41h0ZM71.44,116.84v4.98c0,.4-.16.75-.42,1.01h0c-.26.26-.62.42-1.01.42h-2.4v-.12h2.4c.36,0,.69-.14.93-.39h0c.23-.23.39-.56.39-.93v-4.98h.12Z"/>
            <path class="cls-3" d="M77.51,120.4c-.15-.15-.23-.38-.23-.62,0-.09.01-.19.04-.28.04-.09.07-.18.13-.25h0l1.22-1.85v-.02h.21l-.05.07-.99,1.5s.04-.01.05-.02c.07-.01.14-.02.21-.02.23,0,.43.09.59.26.15.16.25.39.25.62,0,.25-.09.47-.25.62-.15.16-.35.26-.59.26s-.43-.09-.59-.26h0ZM77.63,119.27c-.12.13-.19.31-.19.5s.07.38.19.5c.12.13.28.21.47.21s.35-.08.47-.21.2-.3.2-.5-.08-.38-.2-.5c-.12-.13-.28-.21-.47-.21s-.35.08-.47.21h0ZM81.54,117.55h-2.11v-.18h2.43l-.05.07-2.1,3.19v.02h-.22l.05-.07,2.01-3.04ZM82.18,120.4c-.15-.16-.25-.38-.25-.62,0-.2.06-.38.15-.52.08-.13.19-.22.32-.28-.12-.07-.21-.15-.28-.27-.09-.14-.15-.3-.15-.49,0-.22.09-.43.23-.59.14-.16.34-.26.56-.26s.42.09.56.26h0c.14.15.22.36.22.59,0,.19-.05.35-.14.49-.07.12-.18.2-.29.27.13.06.23.16.32.28.11.14.16.33.16.52,0,.25-.09.46-.25.62-.15.16-.36.26-.59.26-.23,0-.45-.09-.59-.26h0ZM82.29,119.29c-.12.13-.19.31-.19.49,0,.2.08.38.2.5.12.13.28.2.47.2.18,0,.35-.07.47-.2s.19-.3.19-.5c0-.19-.07-.36-.18-.49-.12-.13-.28-.21-.46-.22h-.06c-.18.01-.33.09-.45.22h0ZM82.32,117.75c-.11.12-.18.29-.18.47,0,.19.06.35.18.47.11.12.25.2.41.2h.04c.18,0,.33-.07.43-.19.12-.13.19-.29.19-.48,0-.18-.07-.35-.19-.47-.11-.12-.27-.2-.43-.2-.18,0-.33.08-.45.2h0ZM85.68,117.63c.15.16.25.39.25.62,0,.11-.02.2-.05.28-.02.09-.07.19-.13.26h0l-1.21,1.84v.02h-.21l.05-.07.98-1.49s-.04.01-.06.01c-.06.02-.14.04-.21.04-.22,0-.43-.11-.59-.27-.15-.15-.23-.38-.23-.62s.08-.46.23-.62c.15-.15.36-.26.59-.26.23,0,.45.11.59.26h0ZM85.56,118.77c.12-.13.2-.32.2-.52s-.08-.38-.2-.5c-.12-.12-.28-.2-.47-.2-.18,0-.35.08-.47.2-.12.13-.19.31-.19.5s.07.39.19.52c.12.12.29.2.47.2.19,0,.35-.08.47-.2h0ZM89.78,117.55h-1.03v-.18h1.35l-.05.07-.06.09-.92,1.4s.02-.01.04-.01c.06-.01.13-.02.2-.02.22,0,.43.09.59.26.14.16.23.38.23.62s-.09.47-.23.62c-.15.16-.36.26-.59.26-.12,0-.22-.02-.32-.06-.09-.05-.19-.11-.26-.18l-.04-.04.04-.04.06-.06.04-.02.02.02c.06.06.13.11.21.14.07.04.15.05.25.05.18,0,.34-.07.46-.2.13-.13.2-.3.2-.5s-.07-.38-.2-.5c-.12-.12-.28-.2-.46-.2-.09,0-.18.01-.25.05-.08.04-.15.08-.21.14l-.02.04-.04-.04-.06-.06-.02-.04.02-.02,1.04-1.59ZM92.41,120.66h-.12v-.67h-1.71l.05-.07,1.65-2.52v-.02h.18v2.44h.55v.18h-.55v.67h-.05ZM92.29,117.69l-1.4,2.12h1.4v-2.12ZM94.07,119.06h-.56v-1.69h1.35v.18h-1.18v1.35h.4c.22,0,.43.09.59.26.15.15.23.38.23.62s-.08.46-.23.62c-.15.16-.36.26-.59.26-.23,0-.45-.09-.59-.26-.15-.16-.25-.38-.25-.62v-.05h.16v.05c0,.2.08.38.2.5s.28.2.47.2c.18,0,.34-.07.47-.2.12-.13.19-.3.19-.5s-.07-.38-.19-.5h0c-.13-.13-.29-.21-.47-.21h0ZM95.81,120.4c-.15-.15-.25-.38-.25-.62,0-.09.01-.19.05-.28.02-.09.07-.18.12-.25h0l1.22-1.85v-.02h.21l-.05.07-.99,1.5s.04-.01.06-.02h0c.06-.01.13-.02.21-.02.22,0,.43.09.59.26.14.16.23.38.23.62s-.09.47-.23.62c-.15.16-.36.26-.59.26-.23,0-.45-.09-.59-.26h0ZM95.93,119.27c-.13.13-.2.31-.2.5s.07.38.2.5c.12.13.28.21.47.21.18,0,.34-.08.47-.21.12-.13.19-.3.19-.5s-.07-.38-.19-.5c-.13-.13-.29-.21-.47-.21-.19,0-.35.08-.47.21h0ZM100.61,120.66h-.13v-3.28h.18v3.28h-.05ZM102.1,117.76c-.12.13-.19.31-.19.5v.04h-.18v-.04c0-.25.09-.47.25-.62.15-.16.35-.27.59-.27s.43.11.59.27c.15.15.25.38.25.62,0,.09-.01.19-.05.27h0c-.02.09-.07.18-.12.26h0l-1.13,1.7h1.29v.16h-1.59l.04-.07,1.24-1.89h.01c.04-.07.07-.13.09-.21h0c.02-.07.04-.14.04-.22,0-.2-.07-.38-.19-.5h0c-.12-.13-.28-.21-.47-.21s-.35.08-.47.21h0ZM105.2,117.55h-1.03v-.18h1.35l-.05.07-.06.09-.91,1.4s.04-.01.05-.01c.06-.01.12-.02.19-.02.23,0,.43.09.59.26.15.16.25.38.25.62s-.09.47-.25.62c-.15.16-.35.26-.59.26-.11,0-.21-.02-.3-.06-.11-.05-.19-.11-.27-.18l-.02-.04.02-.04.06-.06.04-.02.04.02c.06.06.13.11.2.14.08.04.16.05.25.05.19,0,.35-.07.47-.2s.19-.3.19-.5-.07-.38-.19-.5h0c-.12-.12-.29-.2-.47-.2-.08,0-.16.01-.25.05-.07.04-.14.08-.2.14l-.04.04-.04-.04-.05-.06-.02-.04v-.02s1.06-1.59,1.06-1.59ZM107.84,120.66h-.13v-.67h-1.71l.05-.07,1.65-2.52v-.02h.19v2.44h.54v.18h-.54v.67h-.05ZM107.71,117.69l-1.4,2.12h1.4v-2.12Z"/>
            <path class="cls-14" d="M68.81,108.7c1.83,0,3.33-1.5,3.33-3.34s-1.5-3.34-3.33-3.34-3.34,1.5-3.34,3.34,1.5,3.34,3.34,3.34h0Z"/>
            <path class="cls-3" d="M81.04,107.11c.22-.09.42-.22.59-.4l.04-.04.04.04.07.08.02.04-.02.02c-.19.19-.41.34-.66.43-.23.11-.49.15-.76.15-.55,0-1.06-.22-1.42-.59-.36-.36-.59-.86-.59-1.41s.22-1.06.59-1.42c.36-.36.87-.59,1.42-.59.27,0,.53.06.76.15.23.09.46.25.65.42l.04.04-.04.04-.08.06-.02.04-.04-.04c-.16-.15-.36-.29-.59-.38-.21-.09-.43-.14-.68-.14-.5,0-.96.2-1.29.53-.33.33-.53.79-.53,1.29s.2.95.53,1.28h0c.33.33.79.53,1.29.53.25,0,.48-.05.69-.14h0ZM82.93,106.19l-.56,1.23v.02h-.23l.04-.06,1.83-3.92v-.02h.18v.02s1.84,3.92,1.84,3.92l.02.06h-.21v-.02s-.59-1.23-.59-1.23h-2.31ZM85.15,106l-1.06-2.29-1.07,2.29h2.12ZM88.84,107.44h-.14v-.02s-.93-1.57-.93-1.57h-1.04v1.59h-.19v-4h1.36c.34,0,.63.14.86.35h0c.21.22.35.52.35.86s-.13.62-.35.83c-.2.2-.46.33-.76.35l.89,1.54.04.07h-.08ZM88.62,105.35c.18-.18.29-.43.29-.7s-.12-.54-.29-.71c-.19-.19-.43-.3-.72-.3h-1.17v2.03h1.17c.28-.01.53-.12.72-.3h0ZM91.38,107.44h-1.51v-4h1.51c.55,0,1.04.24,1.41.59.36.36.59.87.59,1.42s-.22,1.04-.59,1.41h0c-.36.36-.86.59-1.41.59h0ZM92.64,106.73c.33-.33.53-.79.53-1.28s-.2-.96-.53-1.28c-.33-.33-.77-.53-1.28-.53h-1.31v3.61h1.31c.5,0,.95-.2,1.28-.53h0Z"/>
            <path class="cls-3" d="M106.03,105.22c.15.17.38.26.61.26h.05c.27.01.52.13.69.3.19.19.3.45.3.74,0,.27-.11.53-.28.71h0c-.16.18-.39.3-.65.33v.32h-.19v-.32c-.27-.01-.5-.13-.68-.3-.19-.2-.29-.46-.29-.74v-.05h.19v.05c0,.23.09.46.25.61.15.15.38.25.61.25s.46-.09.61-.25c.15-.15.25-.38.25-.61s-.09-.46-.25-.61c-.15-.15-.38-.25-.61-.25h-.05c-.27-.01-.52-.13-.69-.3-.19-.19-.31-.46-.31-.74s.11-.54.29-.74c.18-.18.41-.29.68-.31v-.32h.19v.32c.26.04.48.15.65.33.18.19.28.45.28.71v.05h-.19v-.05c0-.23-.09-.46-.25-.61-.15-.15-.38-.25-.61-.25s-.46.09-.61.25c-.15.15-.25.36-.25.61s.09.45.25.6h0Z"/>
          </g>
          <g id="Coins">
            <path class="cls-11" d="M143.82,129.14c1.52,0,11.16-.01,11.16-1.61v-2.24c0-.22-.08-.42-.2-.57-.18-.22-1.49-.04-1.78-.04l-17.85-.18c-.3-.01-2.17.01-2.33.26-.11.14-.16.33-.16.53v2.24c0,1.89,9.56,1.61,11.17,1.61h0Z"/>
            <path class="cls-7" d="M143.83,125.88c6.06,0,11-.48,11-1.08s-4.94-1.08-11-1.08-11,.48-11,1.08,4.95,1.08,11,1.08h0Z"/>
            <path class="cls-11" d="M143.83,123.99c-4.98,0-9.19.32-10.54.76,2.19-.3,6.1-.5,10.54-.5s8.35.2,10.54.5c-1.35-.45-5.56-.76-10.54-.76h0Z"/>
            <path class="cls-11" d="M143.82,125.2c1.52,0,11.16-.01,11.16-1.61v-2.24c0-.21-.08-.41-.2-.57-.18-.21-1.49-.04-1.78-.04l-17.85-.18c-.3,0-2.17.01-2.33.26-.11.15-.16.34-.16.53v2.24c0,1.89,9.56,1.61,11.17,1.61h0Z"/>
            <path class="cls-7" d="M143.83,121.94c6.06,0,11-.48,11-1.08s-4.94-1.07-11-1.07-11,.48-11,1.07,4.95,1.08,11,1.08h0Z"/>
            <path class="cls-11" d="M143.83,120.05c-4.98,0-9.19.33-10.54.77,2.19-.31,6.1-.52,10.54-.52s8.35.21,10.54.52c-1.35-.45-5.56-.77-10.54-.77h0Z"/>
            <path class="cls-11" d="M143.82,121.26c1.52,0,11.16,0,11.16-1.61v-2.23c0-.22-.08-.42-.2-.59-.18-.21-1.49-.02-1.78-.04l-17.85-.18c-.3,0-2.17.02-2.33.26-.11.15-.16.34-.16.54v2.23c0,1.9,9.56,1.61,11.17,1.61h0Z"/>
            <path class="cls-7" d="M143.83,118.01c6.06,0,11-.49,11-1.08s-4.94-1.08-11-1.08-11,.48-11,1.08,4.95,1.08,11,1.08h0Z"/>
            <path class="cls-11" d="M143.83,116.11c-4.98,0-9.19.33-10.54.77,2.19-.31,6.1-.5,10.54-.5s8.35.2,10.54.5c-1.35-.45-5.56-.77-10.54-.77h0Z"/>
            <path class="cls-11" d="M143.82,117.33c1.52,0,11.16-.01,11.16-1.61v-2.24c0-.22-.08-.42-.2-.57-.18-.22-1.49-.04-1.78-.04l-17.85-.18c-.3-.01-2.17.01-2.33.26-.11.14-.16.33-.16.53v2.24c0,1.89,9.56,1.61,11.17,1.61h0Z"/>
            <path class="cls-7" d="M143.83,114.07c6.06,0,11-.48,11-1.08s-4.94-1.08-11-1.08-11,.48-11,1.08,4.95,1.08,11,1.08h0Z"/>
            <path class="cls-11" d="M143.83,112.18c-4.98,0-9.19.32-10.54.76,2.19-.31,6.1-.5,10.54-.5s8.35.2,10.54.5c-1.35-.45-5.56-.76-10.54-.76h0Z"/>
            <path class="cls-11" d="M146.27,113.05c1.52,0,11.17,0,11.17-1.61v-2.23c0-.22-.08-.42-.2-.59-.18-.21-1.49-.02-1.78-.04l-17.85-.18c-.3,0-2.16.02-2.33.26-.11.15-.16.34-.16.54v2.23c0,1.9,9.56,1.61,11.16,1.61h0Z"/>
            <path class="cls-7" d="M146.28,109.79c6.06,0,11-.48,11-1.07s-4.94-1.08-11-1.08-11,.48-11,1.08,4.95,1.07,11,1.07h0Z"/>
            <path class="cls-11" d="M146.28,107.9c-4.98,0-9.19.33-10.54.77,2.19-.3,6.1-.5,10.54-.5s8.35.2,10.54.5c-1.35-.45-5.56-.77-10.54-.77h0Z"/>
            <path class="cls-11" d="M143.5,108.78c1.52,0,11.18-.01,11.18-1.61v-2.24c0-.22-.08-.42-.21-.59-.16-.21-1.48-.02-1.77-.02l-17.85-.19c-.32,0-2.17.02-2.33.26-.11.15-.18.34-.18.54v2.24c0,1.89,9.56,1.61,11.16,1.61h0Z"/>
            <path class="cls-7" d="M143.53,105.52c6.05,0,10.99-.49,10.99-1.08s-4.94-1.08-10.99-1.08-11,.48-11,1.08,4.94,1.08,11,1.08h0Z"/>
            <path class="cls-11" d="M143.53,103.62c-4.98,0-9.19.33-10.54.77,2.19-.3,6.09-.5,10.54-.5s8.35.2,10.54.5c-1.35-.45-5.56-.77-10.54-.77h0Z"/>
            <path class="cls-11" d="M138.94,104.1c1.5-.26,11-1.88,10.73-3.45l-.36-2.22c-.05-.21-.15-.4-.3-.53-.2-.19-1.47.21-1.76.26l-17.62,2.82c-.32.05-2.13.38-2.26.64-.08.16-.12.36-.08.55l.38,2.21c.32,1.87,9.7-.01,11.28-.28h0Z"/>
            <path class="cls-7" d="M138.05,98.76c-5.99,1.01-10.77,2.31-10.67,2.9.11.59,5.04.23,11.02-.77,5.99-1.02,10.77-2.32,10.66-2.91-.09-.59-5.03-.23-11.01.79h0Z"/>
            <path class="cls-11" d="M138.09,99.02c-4.91.83-9.01,1.85-10.26,2.52,2.11-.67,5.92-1.53,10.31-2.26,4.39-.75,8.27-1.2,10.48-1.27-1.41-.21-5.62.18-10.53,1.01h0Z"/>
            <path class="cls-11" d="M127.6,132.67c6.34,0,11.52-5.17,11.52-11.52s-5.17-11.52-11.52-11.52-11.52,5.17-11.52,11.52,5.17,11.52,11.52,11.52h0Z"/>
            <path class="cls-7" d="M127.6,130.63c5.22,0,9.49-4.26,9.49-9.48s-4.27-9.49-9.49-9.49-9.49,4.27-9.49,9.49,4.27,9.48,9.49,9.48h0Z"/>
            <path class="cls-11" d="M127.6,130.09c4.93,0,8.94-4.01,8.94-8.94s-4.01-8.94-8.94-8.94-8.94,4.01-8.94,8.94,4.01,8.94,8.94,8.94h0Z"/>
            <path class="cls-7" d="M126.63,126.3h2.05v-.83c1.14-.4,1.96-1.41,1.96-2.62,0-.67-.23-1.28-.66-1.76-.56-.66-1.43-1.08-2.39-1.08-.41,0-.74-.3-.74-.68s.33-.7.74-.7.75.32.75.7h2.3c0-1.2-.82-2.22-1.96-2.62v-.96h-2.05v.93c-1.22.36-2.08,1.42-2.08,2.66,0,1.55,1.35,2.79,3.04,2.79.41,0,.75.32.75.69s-.34.68-.75.68-.74-.31-.74-.69h-2.32c0,1.29.88,2.33,2.1,2.7v.79Z"/>
          </g>
          <g id="Money">
            <path class="cls-6" d="M113.45,70.04h36.86s.06.02.06.06v1.7s-.02.06-.06.06h-36.86s-.06-.02-.06-.06v-1.7s.02-.06.06-.06h0Z"/>
            <path class="cls-6" d="M113.45,71.79h36.86s.06.04.06.07v1.69s-.02.06-.06.06h-36.86s-.06-.02-.06-.06v-1.69s.02-.07.06-.07h0Z"/>
            <path class="cls-16" d="M113.53,71.5h36.7s.01.01.01.02v.61s0,.02-.01.02h-36.7s-.02-.01-.02-.02v-.61s.01-.02.02-.02h0Z"/>
            <path class="cls-6" d="M113.45,73.54h36.86s.06.04.06.07v1.69s-.02.07-.06.07h-36.86s-.06-.04-.06-.07v-1.69s.02-.07.06-.07h0Z"/>
            <path class="cls-16" d="M113.53,73.26h36.7s.01,0,.01.02v.6s0,.02-.01.02h-36.7s-.02-.01-.02-.02v-.6s.01-.02.02-.02h0Z"/>
            <path class="cls-6" d="M113.45,75.3h36.86s.06.02.06.06v1.69s-.02.07-.06.07h-36.86s-.06-.04-.06-.07v-1.69s.02-.06.06-.06h0Z"/>
            <path class="cls-16" d="M113.53,75h36.7s.01.01.01.02v.61s0,.01-.01.01h-36.7s-.02,0-.02-.01v-.61s.01-.02.02-.02h0Z"/>
            <path class="cls-6" d="M113.45,64.79h36.86s.06.04.06.07v1.69s-.02.06-.06.06h-36.86s-.06-.02-.06-.06v-1.69s.02-.07.06-.07h0Z"/>
            <path class="cls-6" d="M113.45,66.54h36.86s.06.04.06.07v1.69s-.02.06-.06.06h-36.86s-.06-.02-.06-.06v-1.69s.02-.07.06-.07h0Z"/>
            <path class="cls-16" d="M113.53,66.24h36.7s.01.01.01.02v.61s0,.02-.01.02h-36.7s-.02-.01-.02-.02v-.61s.01-.02.02-.02h0Z"/>
            <path class="cls-6" d="M113.45,68.29h36.86s.06.02.06.06v1.69s-.02.07-.06.07h-36.86s-.06-.04-.06-.07v-1.69s.02-.06.06-.06h0Z"/>
            <path class="cls-16" d="M113.53,68h36.7s.01.01.01.02v.6s0,.02-.01.02h-36.7s-.02-.01-.02-.02v-.6s.01-.02.02-.02h0Z"/>
            <path class="cls-16" d="M113.53,69.75h36.7s.01.01.01.02v.61s0,.02-.01.02h-36.7s-.02-.01-.02-.02v-.61s.01-.02.02-.02h0Z"/>
            <path class="cls-6" d="M113.45,59.53h36.86s.06.04.06.07v1.69s-.02.06-.06.06h-36.86s-.06-.02-.06-.06v-1.69s.02-.07.06-.07h0Z"/>
            <path class="cls-6" d="M113.45,61.29h36.86s.06.02.06.06v1.69s-.02.07-.06.07h-36.86s-.06-.04-.06-.07v-1.69s.02-.06.06-.06h0Z"/>
            <path class="cls-16" d="M113.53,61h36.7s.01.01.01.02v.6s0,.02-.01.02h-36.7s-.02-.01-.02-.02v-.6s.01-.02.02-.02h0Z"/>
            <path class="cls-6" d="M113.45,63.04h36.86s.06.02.06.06v1.7s-.02.06-.06.06h-36.86s-.06-.02-.06-.06v-1.7s.02-.06.06-.06h0Z"/>
            <path class="cls-16" d="M113.53,62.75h36.7s.01.01.01.02v.61s0,.02-.01.02h-36.7s-.02-.01-.02-.02v-.61s.01-.02.02-.02h0Z"/>
            <path class="cls-16" d="M113.53,64.5h36.7s.01.01.01.02v.61s0,.02-.01.02h-36.7s-.02-.01-.02-.02v-.61s.01-.02.02-.02h0Z"/>
            <path class="cls-6" d="M97.45,63.58h41.38c.39,0,.7.33.7.72v18.78c0,.39-.32.7-.7.7h-41.38c-.39,0-.7-.32-.7-.7v-18.78c0-.39.32-.72.7-.72h0Z"/>
            <path class="cls-16" d="M98.99,65.04h38.29c.34,0,.61.27.61.61v16.08c0,.33-.27.6-.61.6h-38.29c-.33,0-.6-.27-.6-.6v-16.08c0-.34.27-.61.6-.61h0Z"/>
            <path class="cls-6" d="M104.3,66.21h27.67v.33c0,2.86,1.92,5.2,4.3,5.2.15,0,.29-.01.43-.04v3.79c-.14-.01-.28-.02-.43-.02-2.38,0-4.3,2.33-4.3,5.2v.33h-27.67c.01-.11.01-.22.01-.33,0-2.86-1.94-5.2-4.32-5.2-.14,0-.28.01-.42.02v-3.79c.14.02.28.04.42.04,2.38,0,4.32-2.33,4.32-5.2,0-.11,0-.22-.01-.33h0Z"/>
            <path class="cls-2" d="M117.07,79.73h2.27v-.9c1.25-.45,2.16-1.56,2.16-2.88,0-.74-.27-1.41-.73-1.95-.62-.71-1.58-1.18-2.64-1.18-.46,0-.82-.34-.82-.75s.36-.77.82-.77.83.35.83.77h2.53c0-1.31-.9-2.44-2.16-2.88v-1.06h-2.27v1.02c-1.34.4-2.29,1.56-2.29,2.93,0,1.71,1.49,3.08,3.35,3.08.45,0,.83.34.83.76s-.39.75-.83.75-.82-.34-.82-.77h-2.55c0,1.43.96,2.58,2.3,2.98v.86Z"/>
          </g>
          <g id="Graph">
            <path class="cls-18" d="M56.08,58.88c-.69,0-1.24-.55-1.24-1.24s.55-1.23,1.24-1.23h20.71l24.19-24.19c.23-.23.56-.36.88-.36h43.35c.68,0,1.24.56,1.24,1.24s-.56,1.24-1.24,1.24h-42.84l-24.17,24.18c-.22.22-.54.36-.89.36h-21.23Z"/>
            <path class="cls-18" d="M61.97,68.8c-.45.11-.89-.16-1-.61-.11-.45.16-.89.61-1l1.62-.39c.43-.11.88.18.99.61.11.45-.16.89-.61,1l-1.61.39ZM146.92,46.9c.45-.11.89.18,1,.61.11.45-.16.89-.61,1l-1.61.39c-.45.11-.89-.16-1-.61-.11-.45.16-.89.61-1l1.61-.39ZM140.48,48.44c.45-.11.89.16,1,.61.11.45-.16.89-.61,1l-1.62.39c-.43.11-.88-.18-.98-.62-.11-.45.16-.89.61-1l1.61-.38ZM134.04,49.96c.45-.11.89.18,1,.62.11.43-.16.88-.61.99l-1.62.39c-.45.11-.89-.16-1-.61-.11-.45.18-.89.62-1l1.61-.39ZM127.6,51.5c.45-.1.89.16,1,.61.11.45-.18.89-.62,1l-1.61.39c-.45.11-.89-.18-1-.62-.11-.45.18-.89.62-1l1.61-.38ZM121.16,53.03c.45-.11.89.18,1,.62.11.45-.18.89-.62,1l-1.61.38c-.45.11-.89-.16-1-.61-.1-.45.18-.89.61-1l1.62-.39ZM114.72,54.56c.43-.1.88.17,1,.61.11.45-.18.89-.62,1l-1.61.39c-.45.11-.89-.18-1-.62-.11-.43.16-.89.61-1l1.62-.38ZM108.28,56.09c.45-.11.89.18,1,.62.11.45-.16.89-.61,1l-1.61.38c-.45.11-.89-.16-1-.61-.11-.45.16-.89.61-1l1.61-.39ZM101.84,57.62c.45-.11.89.16,1,.61.11.45-.16.89-.61,1l-1.61.39c-.45.11-.89-.18-1-.61-.11-.45.16-.89.61-1l1.61-.39ZM95.4,59.15c.45-.11.89.18,1,.62.11.45-.16.89-.61,1l-1.61.38c-.45.11-.89-.16-1-.61-.1-.45.16-.89.61-1l1.61-.39ZM88.96,60.68c.45-.11.89.16,1,.61.11.45-.16.89-.61,1l-1.62.39c-.45.11-.89-.18-1-.61-.11-.45.18-.89.62-1l1.61-.39ZM82.52,62.22c.45-.11.89.17,1,.61.11.45-.18.89-.61,1l-1.62.38c-.45.11-.89-.16-1-.61-.1-.45.18-.89.62-1l1.61-.38ZM76.08,63.74c.45-.11.89.17,1,.61.11.45-.18.89-.62,1l-1.61.39c-.45.11-.89-.16-1-.61-.11-.45.18-.89.61-1l1.62-.39ZM69.64,65.28c.45-.11.89.16,1,.61.11.45-.18.89-.62,1l-1.61.38c-.45.11-.89-.16-1-.61-.11-.45.16-.89.61-1l1.62-.38Z"/>
          </g>
          <g id="Up_Arrow">
            <polygon class="cls-3" points="66.54 27.67 66.54 44.89 63.02 44.89 63.02 27.67 58.96 27.67 61.87 22.63 64.78 17.58 67.69 22.63 70.61 27.67 66.54 27.67"/>
            <polygon class="cls-3" points="75.91 34.27 75.91 47.19 73.27 47.19 73.27 34.27 70.23 34.27 72.41 30.5 74.59 26.71 76.77 30.5 78.96 34.27 75.91 34.27"/>
          </g>
        </g>
      </g>
    </g>
  </g>
</svg>